<svg width="75" height="56" viewBox="0 0 75 56" fill="none" xmlns="http://www.w3.org/2000/svg">
<path d="M67.1598 33.2634C70.2649 33.2634 72.782 30.7438 72.782 27.6357C72.782 24.5277 70.2649 22.0081 67.1598 22.0081C64.0547 22.0081 61.5376 24.5277 61.5376 27.6357C61.5376 30.7438 64.0547 33.2634 67.1598 33.2634Z" fill="#E73348"/>
<path d="M55.2316 20.2624V35.0228H51.437V33.4448C50.8821 34.1003 50.1889 34.6244 49.4072 34.9793C48.6256 35.3343 47.7751 35.5113 46.9169 35.4976C44.9347 35.3526 43.0807 34.4621 41.7275 33.005C40.3742 31.5478 39.6221 29.6321 39.6221 27.6426C39.6221 25.6531 40.3742 23.7374 41.7275 22.2803C43.0807 20.8231 44.9347 19.9326 46.9169 19.7876C47.7751 19.7739 48.6256 19.9509 49.4072 20.3059C50.1889 20.6609 50.8821 21.1849 51.437 21.8404V20.2624H55.2316ZM51.437 27.6356C51.437 26.8347 51.1997 26.0517 50.7552 25.3857C50.3106 24.7198 49.6787 24.2007 48.9395 23.8942C48.2002 23.5877 47.3867 23.5075 46.6019 23.6638C45.8171 23.82 45.0963 24.2057 44.5304 24.7721C43.9646 25.3384 43.5793 26.06 43.4232 26.8456C43.2671 27.6311 43.3472 28.4454 43.6534 29.1854C43.9597 29.9254 44.4782 30.5578 45.1435 31.0028C45.8088 31.4478 46.5911 31.6853 47.3912 31.6853C48.4642 31.6853 49.4933 31.2587 50.252 30.4992C51.0107 29.7397 51.437 28.7097 51.437 27.6356Z" fill="#421C52"/>
<path d="M32.701 30.3449L34.2774 33.7382C32.841 34.9279 31.021 35.5534 29.1575 35.4978C28.0991 35.5424 27.0426 35.3724 26.0516 34.9978C25.0606 34.6231 24.1556 34.0517 23.3909 33.3179C22.6263 32.5841 22.0178 31.7031 21.6021 30.7278C21.1864 29.7525 20.9722 28.7031 20.9722 27.6428C20.9722 26.5824 21.1864 25.533 21.6021 24.5577C22.0178 23.5824 22.6263 22.7014 23.3909 21.9676C24.1556 21.2338 25.0606 20.6624 26.0516 20.2878C27.0426 19.9131 28.0991 19.7431 29.1575 19.7877C31.0218 19.727 32.8436 20.353 34.2774 21.5473L32.701 24.9686C31.789 24.072 30.5613 23.5704 29.283 23.5721C28.7181 23.5145 28.1474 23.5761 27.6077 23.753C27.0681 23.9299 26.5715 24.2182 26.1501 24.5992C25.7287 24.9802 25.3919 25.4455 25.1613 25.9649C24.9308 26.4843 24.8116 27.0464 24.8116 27.6148C24.8116 28.1832 24.9308 28.7453 25.1613 29.2648C25.3919 29.7842 25.7287 30.2494 26.1501 30.6304C26.5715 31.0114 27.0681 31.2997 27.6077 31.4766C28.1474 31.6536 28.7181 31.7152 29.283 31.6575C30.5501 31.6847 31.7773 31.2134 32.701 30.3449Z" fill="#421C52"/>
<path d="M7.84047 33.2634C10.9455 33.2634 13.4627 30.7438 13.4627 27.6357C13.4627 24.5277 10.9455 22.0081 7.84047 22.0081C4.73541 22.0081 2.21826 24.5277 2.21826 27.6357C2.21826 30.7438 4.73541 33.2634 7.84047 33.2634Z" fill="#E73348"/>
<path d="M14.1603 11.4789V15.2772H1.60449V0.474854H5.32938V11.4789H14.1603Z" fill="#421C52"/>
<path d="M67.1597 15.6961C71.4899 15.6961 75.0001 12.1824 75.0001 7.84803C75.0001 3.51368 71.4899 0 67.1597 0C62.8296 0 59.3193 3.51368 59.3193 7.84803C59.3193 12.1824 62.8296 15.6961 67.1597 15.6961Z" fill="#E73348"/>
<path d="M47.3913 13.4758C50.4963 13.4758 53.0135 10.9562 53.0135 7.84814C53.0135 4.74005 50.4963 2.22046 47.3913 2.22046C44.2862 2.22046 41.769 4.74005 41.769 7.84814C41.769 10.9562 44.2862 13.4758 47.3913 13.4758Z" fill="#E73348"/>
<path d="M35.4631 7.84804C35.4659 9.40359 35.0076 10.925 34.1462 12.2197C33.2848 13.5145 32.0591 14.5243 30.6242 15.1215C29.1892 15.7187 27.6095 15.8764 26.085 15.5746C24.5605 15.2729 23.1597 14.5252 22.0598 13.4262C20.96 12.3273 20.2105 10.9264 19.9063 9.40095C19.6021 7.87549 19.7569 6.29399 20.3509 4.85659C20.945 3.41918 21.9517 2.19048 23.2436 1.32597C24.5356 0.461467 26.0547 1.48788e-05 27.6087 1.2425e-05C28.6395 -0.00182351 29.6606 0.199818 30.6134 0.593396C31.5663 0.986974 32.4322 1.56476 33.1618 2.2937C33.8913 3.02264 34.4701 3.88842 34.865 4.8415C35.2598 5.79458 35.4631 6.81625 35.4631 7.84804ZM31.6545 7.84804C31.6545 7.04709 31.4172 6.26412 30.9727 5.59815C30.5281 4.93218 29.8963 4.41312 29.157 4.10661C28.4177 3.8001 27.6043 3.7199 26.8195 3.87616C26.0347 4.03242 25.3138 4.41811 24.748 4.98447C24.1821 5.55083 23.7968 6.27242 23.6407 7.05799C23.4846 7.84355 23.5647 8.65781 23.871 9.39779C24.1772 10.1378 24.6957 10.7703 25.361 11.2152C26.0264 11.6602 26.8086 11.8977 27.6087 11.8977C28.6817 11.8977 29.7108 11.4711 30.4695 10.7116C31.2283 9.95214 31.6545 8.92209 31.6545 7.84804Z" fill="#421C52"/>
<path d="M73.814 50.0488C73.814 53.0511 71.4424 55.2855 67.3408 55.2855C64.8913 55.3319 62.4928 54.5823 60.5049 53.1489L61.6907 49.574C63.154 50.8321 64.9954 51.5645 66.9223 51.6547C68.6801 51.6547 69.9636 51.3056 69.9636 50.3839C69.9636 49.7276 69.3079 49.4902 67.3408 49.1551C61.8442 48.2613 60.9234 46.5158 60.9234 44.0999C60.9234 41.6841 63.5043 39.5754 67.3687 39.5754C69.3623 39.5893 71.3254 40.0674 73.1025 40.9719L72.0423 44.4211C70.6187 43.606 69.0087 43.173 67.3687 43.1643C65.8341 43.1643 64.732 43.4296 64.732 44.058C64.732 44.9518 66.2666 45.1054 67.8431 45.3707C72.8514 46.2086 73.814 48.1775 73.814 50.0488Z" fill="#421C52"/>
<path d="M53.6968 50.9984V54.7688H41.0713V40.0642H44.9496V50.9984H53.6968Z" fill="#421C52"/>
<path d="M27.609 53.0649C30.7141 53.0649 33.2312 50.5453 33.2312 47.4373C33.2312 44.3292 30.7141 41.8096 27.609 41.8096C24.504 41.8096 21.9868 44.3292 21.9868 47.4373C21.9868 50.5453 24.504 53.0649 27.609 53.0649Z" fill="#E73348"/>
<path d="M7.8404 55.2854C12.1705 55.2854 15.6808 51.7717 15.6808 47.4374C15.6808 43.103 12.1705 39.5894 7.8404 39.5894C3.51027 39.5894 0 43.103 0 47.4374C0 51.7717 3.51027 55.2854 7.8404 55.2854Z" fill="#E73348"/>
</svg>
